# xmcd
#
# Track frame offsets:
#  150
#  22324
#  41912
#  61839
#  80408
#  101694
#  116919
#  137943
#  156486
#  174193
#  192135
#  210547
#  231297
#  250832
#  268931
#  293508
#
# Disc length: 4159 seconds
#
# Revision: 0
# Processed by: cddbd v1.4PL0 Copyright (c) Steve Scherf et al.
# Submitted via: AltoMP3_Maker 3.0
#
DISCID=ed103d10
DTITLE=任贤齐等 - 世纪风男人篇TWO
DYEAR=1900
DGENRE=
TTITLE0=我的心不够肯定
TTITLE1=贵气逼人
TTITLE2=我爱的人
TTITLE3=真心相恋
TTITLE4=一定要有你
TTITLE5=我的名字
TTITLE6=爱要怎么说出口
TTITLE7=我要摇摆
TTITLE8=一路上
TTITLE9=爱不坏
TTITLE10=这一秒，你好不好
TTITLE11=单身情歌
TTITLE12=再回到从前
TTITLE13=谁来拥抱我
TTITLE14=爱不爱我
TTITLE15=爱情的味道
EXTD=
EXTT0=
EXTT1=
EXTT2=
EXTT3=
EXTT4=
EXTT5=
EXTT6=
EXTT7=
EXTT8=
EXTT9=
EXTT10=
EXTT11=
EXTT12=
EXTT13=
EXTT14=
EXTT15=
PLAYORDER=
